<?xml version="1.0" standalone="no"?>
<!DOCTYPE svg PUBLIC "-//W3C//DTD SVG 20010904//EN"
 "http://www.w3.org/TR/2001/REC-SVG-20010904/DTD/svg10.dtd">
<svg version="1.0" xmlns="http://www.w3.org/2000/svg"
 width="2446.000000pt" height="2482.000000pt" viewBox="0 0 2446.000000 2482.000000"
 preserveAspectRatio="xMidYMid meet">
<style>
  path {
    fill: #FCFCFC;
  }
</style>
<g transform="translate(0.000000,2482.000000) scale(0.100000,-0.100000)"
stroke="none">
<path d="M13025 24249 c-500 -29 -1008 -200 -1426 -478 -183 -122 -281 -202
-435 -355 -245 -245 -403 -470 -556 -791 l-48 -100 -62 -8 c-406 -53 -713
-106 -1097 -188 -401 -86 -697 -186 -1004 -340 -391 -195 -697 -418 -1017
-738 l-185 -186 -85 13 c-148 22 -535 27 -691 8 -351 -41 -639 -126 -954 -281
-305 -150 -845 -504 -1265 -829 -124 -96 -418 -386 -514 -506 -266 -334 -475
-755 -579 -1165 -103 -406 -115 -658 -76 -1665 23 -602 27 -1309 9 -1790 -18
-496 -24 -1363 -11 -1595 24 -432 61 -719 151 -1180 81 -415 83 -433 83 -670
-1 -304 -19 -481 -123 -1175 -100 -664 -116 -860 -107 -1275 19 -827 190
-1600 562 -2535 427 -1075 978 -1974 1722 -2807 140 -158 586 -600 749 -744
1527 -1349 3373 -2125 5424 -2281 235 -18 1065 -18 1300 0 1931 147 3679 842
5154 2051 488 400 986 906 1378 1401 546 690 950 1385 1333 2295 564 1340 726
2467 510 3544 -46 229 -76 346 -200 775 -132 461 -155 565 -155 692 0 266 92
603 262 959 175 367 253 596 312 915 73 400 91 915 46 1325 -45 407 -159 833
-335 1252 l-46 111 20 78 c253 1012 63 2208 -509 3194 -412 711 -965 1277
-1640 1682 -661 396 -1619 826 -2122 953 -78 19 -143 36 -144 38 -1 1 -18 65
-39 142 -96 366 -265 717 -494 1023 -112 150 -359 402 -508 520 -403 317 -836
503 -1404 601 -507 88 -916 126 -1184 110z m580 -399 c726 -90 1035 -168 1385
-351 552 -290 967 -764 1188 -1359 60 -162 83 -241 127 -447 18 -86 39 -159
45 -163 6 -4 66 -17 133 -29 257 -47 432 -99 707 -209 639 -256 1311 -594
1720 -865 832 -553 1489 -1472 1754 -2457 46 -167 82 -351 109 -545 30 -221
32 -778 4 -980 -22 -153 -56 -319 -95 -466 l-29 -105 34 -75 c269 -587 393
-1136 393 -1739 0 -448 -49 -812 -152 -1129 -48 -149 -98 -268 -211 -506 -176
-370 -281 -774 -281 -1080 1 -170 23 -276 160 -751 239 -834 291 -1147 281
-1714 -8 -500 -70 -906 -218 -1425 -135 -477 -388 -1113 -654 -1645 -577
-1155 -1374 -2143 -2375 -2945 -1123 -900 -2431 -1504 -3833 -1769 -571 -109
-1030 -150 -1657 -150 -518 0 -802 19 -1262 84 -1303 186 -2525 655 -3623
1391 -1373 919 -2463 2212 -3141 3725 -361 806 -581 1546 -668 2249 -30 237
-39 405 -39 685 0 323 14 502 69 870 149 1006 158 1085 159 1445 0 300 1 289
-81 706 -85 434 -115 654 -146 1049 -18 225 -16 996 2 1540 21 615 19 1369 -5
1935 -26 600 -26 1095 -2 1260 109 733 423 1294 989 1767 278 232 972 692
1243 823 500 242 983 307 1556 210 81 -14 149 -25 151 -25 3 0 48 51 100 113
116 135 361 377 478 470 361 288 763 501 1192 631 309 94 951 214 1447 272
124 14 235 29 246 34 15 5 37 47 74 136 137 331 291 571 516 803 388 400 937
675 1480 740 50 6 104 13 120 15 76 11 452 -4 610 -24z"/>
<path d="M12930 23315 c-448 -65 -827 -258 -1135 -577 -260 -268 -420 -578
-500 -963 -9 -44 -18 -90 -21 -102 -4 -22 -9 -23 -99 -23 -99 0 -375 -26 -650
-60 -462 -59 -1065 -179 -1330 -267 -650 -214 -1219 -665 -1585 -1258 -24 -38
-45 -72 -47 -74 -1 -2 -60 19 -130 47 -226 90 -411 130 -648 139 -171 7 -303
-6 -474 -43 -197 -44 -421 -132 -584 -231 -395 -238 -877 -575 -1077 -755
-348 -311 -583 -723 -674 -1180 -53 -266 -56 -426 -24 -1243 26 -671 29 -1393
8 -2010 -21 -625 -20 -1362 3 -1620 31 -343 64 -564 147 -970 73 -356 92 -617
71 -965 -18 -295 -39 -469 -155 -1250 -68 -459 -86 -744 -67 -1074 40 -680
193 -1325 490 -2068 458 -1144 1048 -2048 1875 -2873 1333 -1331 3046 -2153
4905 -2355 348 -38 493 -45 911 -45 418 0 563 7 911 45 2830 308 5301 2069
6531 4655 401 843 630 1555 719 2238 30 228 37 681 15 895 -32 297 -94 578
-233 1057 -105 361 -137 482 -169 654 -84 439 30 1042 306 1621 139 293 187
418 234 620 92 390 102 947 25 1380 -61 348 -215 784 -388 1106 l-39 72 45
122 c204 562 210 1282 17 1934 -254 858 -806 1611 -1534 2092 -486 321 -1532
811 -1975 925 -112 29 -277 56 -390 65 -84 6 -101 11 -149 41 -52 32 -58 41
-114 156 -33 67 -84 158 -112 202 -45 68 -55 92 -67 160 -106 615 -422 1099
-923 1412 -230 143 -485 231 -850 292 -483 81 -858 107 -1070 76z m567 -940
c280 -35 534 -79 628 -110 230 -76 428 -222 554 -407 50 -74 118 -225 146
-322 14 -49 37 -168 50 -264 14 -96 28 -179 32 -186 4 -6 35 -48 69 -92 128
-169 191 -304 227 -490 l21 -112 41 -12 c156 -47 339 -155 468 -278 79 -76 83
-78 117 -71 152 34 331 29 516 -16 329 -79 1321 -547 1708 -806 405 -272 737
-650 961 -1097 175 -351 258 -653 286 -1043 32 -437 -59 -821 -266 -1127 -88
-129 -85 -106 -23 -202 295 -459 466 -857 540 -1265 26 -142 36 -546 19 -733
-26 -271 -52 -353 -224 -717 -276 -585 -430 -1265 -406 -1800 13 -270 56 -484
204 -1000 169 -588 211 -777 236 -1065 34 -401 -49 -962 -221 -1493 -142 -439
-393 -1020 -617 -1432 -608 -1115 -1490 -2050 -2568 -2722 -883 -551 -1893
-910 -2915 -1037 -370 -46 -442 -50 -940 -50 -498 0 -570 4 -940 50 -1275 158
-2504 669 -3536 1469 -1028 797 -1804 1825 -2314 3065 -305 743 -449 1349
-467 1960 -7 252 6 443 53 757 139 942 157 1097 174 1454 13 266 1 567 -30
777 -11 75 -44 263 -74 417 -83 427 -103 569 -127 940 -13 199 -7 980 12 1515
16 470 14 1257 -5 1715 -9 220 -19 555 -23 745 -6 392 1 465 63 650 68 205
206 405 375 547 176 146 592 434 871 601 209 125 368 168 588 159 154 -6 260
-32 383 -93 406 -204 612 -676 502 -1151 -9 -37 -42 -158 -75 -268 -56 -188
-90 -321 -105 -407 l-6 -38 128 0 129 0 32 218 c155 1032 401 1747 768 2238
242 324 579 567 962 694 191 63 636 155 1020 210 700 100 934 93 1198 -35 219
-106 388 -281 490 -506 l30 -67 64 72 c35 39 94 99 131 134 l68 62 -64 123
c-119 228 -200 478 -226 697 -14 127 -7 357 15 457 72 332 255 573 541 715
204 102 381 119 752 73z"/>
<path d="M13152 21479 c-102 -40 -56 -382 85 -639 133 -242 300 -402 505 -483
125 -50 410 -117 498 -117 61 0 74 15 65 72 -10 59 -22 79 -111 188 -115 141
-173 284 -209 512 -9 57 -22 145 -30 196 -19 117 -35 149 -88 172 -45 20 -281
60 -492 85 -71 8 -146 17 -165 19 -19 2 -45 0 -58 -5z"/>
<path d="M10970 19785 c-417 -47 -987 -148 -1180 -208 -309 -98 -533 -306
-715 -667 -306 -608 -525 -1841 -576 -3255 -13 -366 -6 -1835 11 -2105 27
-442 117 -634 329 -700 59 -19 92 -20 513 -20 499 0 496 0 524 65 19 47 17
144 -6 245 -10 47 -71 270 -135 495 -184 648 -206 747 -245 1119 -83 781 8
1297 279 1587 88 95 153 146 261 202 100 53 219 92 338 111 l85 14 -6 -572
c-12 -996 -50 -1717 -148 -2776 -13 -141 -7 -305 12 -364 20 -60 68 -102 131
-116 37 -8 206 -10 568 -8 l515 3 43 23 c33 17 49 35 65 70 20 42 22 63 21
192 -1 117 -10 205 -47 460 -108 729 -185 1473 -222 2130 -29 513 -44 2265
-25 2980 5 190 12 467 16 615 7 290 0 384 -37 444 -38 62 -89 67 -369 36z
m-713 -692 c112 -52 182 -190 213 -416 15 -104 17 -534 6 -938 l-8 -316 -57
-18 c-193 -60 -365 -146 -503 -251 -149 -113 -386 -376 -539 -599 l-34 -50 -6
125 c-10 207 20 752 56 1037 51 395 147 774 259 1017 82 178 209 327 336 395
102 55 183 59 277 14z"/>
<path d="M13397 19754 c-223 -40 -393 -167 -549 -409 -172 -266 -334 -740
-447 -1303 -119 -592 -211 -1323 -251 -2002 -50 -852 -66 -2485 -26 -2728 44
-266 137 -414 293 -462 61 -19 92 -20 512 -20 334 0 452 3 470 13 64 33 84
121 62 268 -7 41 -67 308 -135 594 -151 633 -168 726 -198 1075 -20 233 -17
766 5 930 74 542 286 835 672 926 69 17 326 26 340 13 7 -7 -8 -438 -31 -869
-38 -732 -109 -1535 -201 -2245 -39 -306 -47 -499 -25 -574 17 -57 66 -106
120 -121 30 -7 200 -10 570 -8 518 3 528 3 567 25 103 55 117 196 61 638 -85
665 -138 1342 -158 2017 -9 311 -9 521 0 965 23 1068 49 1761 82 2249 42 605
31 693 -97 758 -37 18 -409 112 -618 156 -295 61 -768 131 -878 129 -34 0 -97
-7 -140 -15z m571 -585 c113 -56 197 -181 243 -359 30 -120 37 -495 15 -860
-9 -146 -19 -328 -22 -405 l-7 -141 -138 -17 c-259 -33 -417 -97 -624 -253
-94 -70 -238 -212 -339 -334 l-76 -91 0 148 c0 224 42 723 86 1018 34 233 95
498 160 692 143 430 322 630 565 632 65 1 84 -3 137 -30z"/>
<path d="M16001 19118 c-52 -27 -76 -67 -90 -149 -5 -30 -12 -283 -16 -564
-22 -1905 -53 -2924 -130 -4355 -40 -732 -41 -769 -20 -875 35 -186 112 -267
305 -322 61 -17 119 -18 875 -18 801 0 811 0 900 22 184 45 320 109 442 206
258 205 393 507 418 932 16 256 -47 532 -185 823 -137 287 -400 685 -757 1145
-74 95 -118 159 -111 162 7 2 76 20 152 40 178 46 273 84 361 144 119 81 194
191 236 346 19 67 22 108 23 260 1 188 -5 239 -51 420 -103 403 -373 802 -716
1059 -223 166 -804 461 -1302 659 -223 89 -270 98 -334 65z m1046 -888 c91
-32 162 -79 254 -170 220 -217 325 -509 290 -804 -20 -172 -60 -269 -154 -371
-67 -74 -155 -132 -317 -209 -161 -75 -473 -186 -487 -172 -11 10 28 1202 43
1312 29 225 93 367 186 413 54 26 112 27 185 1z m129 -2247 c284 -447 445
-816 495 -1138 18 -114 15 -377 -5 -509 -30 -190 -76 -296 -166 -384 -77 -76
-139 -105 -236 -110 -284 -15 -453 198 -534 671 -48 284 -55 400 -55 979 0
301 3 549 5 552 3 2 52 10 110 16 58 6 143 20 190 30 47 10 92 18 100 19 9 1
48 -50 96 -126z"/>
<path d="M6689 18326 c-116 -61 -500 -317 -694 -463 -136 -103 -183 -156 -207
-236 -17 -55 -14 -275 12 -972 24 -656 26 -1281 5 -1965 -22 -717 -30 -1459
-17 -1550 29 -198 83 -267 232 -299 41 -9 293 -11 965 -9 l910 3 57 28 c73 36
113 84 139 167 41 133 42 214 15 1215 -29 1055 -31 1112 -52 1315 -26 255 -85
484 -156 609 -47 82 -132 164 -192 184 -173 59 -386 -33 -467 -201 -17 -34
-20 -57 -18 -115 4 -66 10 -83 71 -202 103 -202 138 -346 159 -665 22 -336 -2
-731 -56 -948 -48 -187 -148 -351 -240 -393 -55 -26 -154 -25 -204 1 -137 70
-249 322 -300 678 -32 216 -80 885 -91 1247 -18 641 -24 1480 -11 1624 15 153
55 334 136 605 30 104 60 209 66 234 18 84 -11 135 -62 108z"/>
<path d="M12450 11985 l95 -95 67 0 68 0 -73 94 -72 95 -90 0 -90 1 95 -95z"/>
<path d="M15353 11826 c-171 -39 -332 -180 -394 -345 -36 -98 -45 -196 -26
-292 73 -370 458 -565 795 -401 67 32 178 133 222 203 82 127 104 318 55 466
-56 167 -183 295 -351 354 -77 27 -218 34 -301 15z m301 -171 c75 -37 155
-115 189 -186 124 -252 -25 -542 -302 -590 -171 -31 -362 73 -439 238 -24 52
-27 69 -27 168 0 100 3 115 28 166 35 72 93 138 157 179 77 49 122 60 235 57
86 -3 108 -8 159 -32z"/>
<path d="M5887 11824 c-4 -4 -7 -250 -7 -546 l0 -538 265 0 265 0 0 70 0 70
-190 0 -190 0 -2 473 -3 472 -65 3 c-36 2 -69 0 -73 -4z"/>
<path d="M6601 11816 c-47 -26 -62 -79 -36 -129 12 -24 12 -33 -6 -84 -10 -31
-19 -58 -19 -60 0 -1 29 -3 65 -3 l66 0 39 82 c49 100 51 138 11 179 -33 32
-78 38 -120 15z"/>
<path d="M7395 11813 c-28 -72 -385 -1057 -385 -1064 0 -5 33 -9 73 -9 l74 0
69 190 68 191 144 -3 145 -3 67 -185 67 -185 78 -3 c71 -3 77 -1 70 15 -3 10
-87 240 -186 512 -226 620 -200 561 -242 561 -24 0 -37 -6 -42 -17z m90 -428
c19 -53 35 -101 35 -106 0 -5 -38 -9 -85 -9 l-84 0 42 120 c25 71 45 114 49
106 4 -7 23 -57 43 -111z"/>
<path d="M8227 11824 c-4 -4 -7 -250 -7 -546 l0 -538 75 0 75 0 2 381 3 381
155 -267 c85 -147 159 -274 165 -282 9 -12 45 44 176 271 l164 285 3 -385 2
-384 70 0 70 0 0 545 0 545 -59 0 c-41 0 -62 -5 -72 -16 -7 -8 -85 -142 -174
-296 -89 -154 -166 -280 -171 -281 -5 0 -86 132 -179 294 l-171 294 -60 3
c-33 2 -63 0 -67 -4z"/>
<path d="M9607 11823 c-4 -3 -7 -249 -7 -545 l0 -538 295 0 295 0 0 70 0 70
-220 0 -220 0 0 165 0 165 220 0 220 0 0 75 0 75 -220 0 -220 0 0 160 0 160
220 0 220 0 0 75 0 75 -288 0 c-159 0 -292 -3 -295 -7z"/>
<path d="M10560 11285 l0 -545 70 0 70 0 0 175 0 175 63 0 62 0 109 -175 109
-175 84 0 c46 0 83 3 83 8 0 4 -52 86 -115 182 -114 175 -115 175 -92 190 46
31 107 93 136 139 138 215 16 501 -240 560 -24 6 -110 11 -191 11 l-148 0 0
-545z m368 369 c35 -18 63 -41 85 -72 29 -43 32 -54 32 -123 0 -67 -4 -81 -30
-124 -46 -75 -111 -105 -226 -105 l-89 0 0 225 0 225 88 0 c75 0 96 -4 140
-26z"/>
<path d="M12531 11811 c-10 -18 -391 -1059 -391 -1067 0 -3 34 -4 76 -2 l76 3
67 185 67 185 145 3 144 2 69 -190 69 -190 73 0 c41 0 74 3 74 6 0 5 -351 976
-387 1072 -8 20 -71 15 -82 -7z m86 -423 l40 -113 -80 -3 c-44 -2 -82 -1 -85
2 -6 6 71 226 79 226 4 0 24 -51 46 -112z"/>
<path d="M13997 11823 c-4 -3 -7 -249 -7 -546 l0 -539 168 4 c163 3 168 4 220
32 69 38 146 122 180 193 24 52 27 70 27 163 0 99 -2 110 -33 172 -25 50 -47
78 -90 113 -31 25 -67 48 -79 51 -21 6 -20 8 18 43 35 34 39 43 39 87 0 104
-78 200 -181 223 -49 12 -252 15 -262 4z m271 -163 c30 -28 38 -68 21 -99 -20
-35 -55 -51 -111 -51 l-48 0 0 85 0 85 58 0 c45 0 63 -5 80 -20z m38 -316
c155 -74 184 -275 58 -399 -52 -50 -90 -65 -169 -65 l-65 0 0 246 0 247 70 -6
c38 -3 86 -14 106 -23z"/>
<path d="M16420 11285 l0 -545 70 0 70 0 0 545 0 545 -70 0 -70 0 0 -545z"/>
<path d="M16968 11824 c-5 -4 -8 -250 -8 -546 l0 -538 75 0 75 0 0 175 0 175
59 0 60 0 108 -175 108 -174 89 -1 88 0 -14 23 c-8 12 -61 92 -116 178 -100
152 -113 179 -91 179 6 0 39 27 74 60 80 78 118 155 123 257 9 163 -89 310
-248 369 -33 13 -88 18 -210 22 -91 2 -168 0 -172 -4z m332 -154 c88 -24 153
-116 153 -215 0 -142 -95 -224 -260 -225 l-83 0 0 225 0 225 78 0 c42 0 93 -4
112 -10z"/>
<path d="M17947 11823 c-4 -3 -7 -249 -7 -545 l0 -538 295 0 295 0 0 70 0 70
-220 0 -220 0 0 165 0 165 220 0 221 0 -3 73 -3 72 -217 3 -218 2 0 160 0 160
220 0 221 0 -3 73 -3 72 -286 3 c-157 1 -288 -1 -292 -5z"/>
<path d="M6211 9710 c-230 -61 -398 -254 -432 -497 -11 -76 8 -271 52 -528
257 -1529 1033 -2881 2224 -3875 853 -712 1912 -1199 3010 -1384 372 -63 684
-88 1075 -88 301 0 490 10 760 43 1673 201 3182 1041 4236 2359 753 941 1220
2065 1359 3273 20 177 7 273 -56 398 -64 129 -197 244 -337 291 l-67 23 -1710
3 c-1515 2 -1718 1 -1780 -13 -140 -31 -260 -107 -341 -217 -57 -78 -74 -118
-117 -274 -83 -304 -212 -554 -405 -784 -314 -376 -728 -611 -1227 -697 -151
-26 -501 -23 -655 5 -429 78 -786 264 -1080 561 -267 269 -432 558 -531 930
-17 64 -42 137 -54 163 -75 155 -210 265 -383 309 -73 18 -126 19 -1771 18
-1644 0 -1698 -1 -1770 -19z m3906 -1999 c547 -328 1009 -493 1613 -577 193
-27 643 -25 851 4 313 44 629 124 890 227 198 78 472 214 672 334 92 56 173
101 179 101 28 0 -175 -184 -338 -306 -437 -328 -931 -527 -1492 -601 -173
-22 -531 -22 -705 1 -560 73 -1054 272 -1491 600 -164 123 -366 306 -338 306
7 0 78 -40 159 -89z m-512 -461 c542 -362 1113 -608 1680 -723 340 -70 468
-82 860 -82 308 1 369 3 510 23 755 106 1365 344 2040 795 55 37 102 62 104
56 6 -20 -240 -238 -424 -374 -547 -407 -1140 -639 -1855 -727 -164 -20 -643
-17 -810 6 -696 94 -1271 323 -1805 721 -178 132 -425 350 -425 374 0 14 -3
16 125 -69z m-345 -579 c267 -181 607 -370 875 -487 448 -195 927 -328 1405
-388 805 -103 1669 10 2435 316 392 157 841 407 1233 687 208 149 -67 -120
-353 -346 -119 -93 -370 -261 -520 -347 -526 -302 -1087 -485 -1725 -563 -205
-25 -735 -25 -940 0 -535 65 -984 194 -1435 411 -408 197 -752 430 -1099 744
-150 137 -181 185 -63 102 39 -29 124 -87 187 -129z m-663 -383 c49 -33 144
-103 213 -154 171 -126 521 -334 785 -466 244 -123 599 -271 775 -324 63 -19
171 -53 240 -74 324 -102 879 -192 1292 -210 594 -26 1277 57 1803 220 88 27
196 60 240 73 145 44 506 198 747 318 272 136 596 329 778 463 222 165 301
218 308 211 16 -17 -332 -327 -563 -502 -644 -487 -1430 -823 -2240 -958 -566
-94 -1104 -94 -1670 0 -915 153 -1753 540 -2473 1143 -128 107 -332 300 -332
313 0 15 6 11 97 -53z m-344 -559 c987 -738 2053 -1168 3222 -1298 1205 -135
2467 105 3570 678 360 187 638 363 972 613 118 88 218 158 224 156 24 -8 -326
-324 -556 -503 -1444 -1123 -3349 -1496 -5105 -1000 -756 214 -1417 552 -2038
1042 -214 169 -534 463 -504 463 7 0 103 -68 215 -151z"/>
<path d="M11885 9705 c-48 -47 -23 -130 60 -203 136 -120 348 -88 446 67 37
57 38 103 4 136 l-24 25 -231 0 -231 0 -24 -25z"/>
</g>
</svg>

